# xmcd
#
# Track frame offsets: 
#        150
#        19143
#        35098
#        50035
#        67234
#        80351
#        95156
#        111812
#        126619
#        142058
#        156955
#        173576
#        188379
#        205602
#        222108
#        236786
#        252539
#        267069
#        281848
#        296779
#        312560
#
# Disc length: 4343 seconds
#
# Revision: 0
# Processed by: cddbd v1.5.2PL0 Copyright (c) Steve Scherf et al.
# Submitted via: ExactAudioCopyFreeDBPlugin 1.0
#
DISCID=5010f515
DTITLE=STYLISTICS - SINGLES 1970-1977 - DISC 2
DYEAR=2010
DGENRE=Soul
TTITLE0=STAR ON A TV SHOW
TTITLE1=HEY GIRL COME AND GET IT
TTITLE2=DISCO BABY
TTITLE3=THANK YOU BABY
TTITLE4=SING BABY SING
TTITLE5=CAN'T GIVE YOU ANYTHING (BUT MY LOVE)
TTITLE6=I'D RATHER BE HURT BY YOU
TTITLE7=FUNKY WEEKEND
TTITLE8=IF YOU ARE THERE
TTITLE9=YOU ARE BEAUTIFUL
TTITLE10=MICHAEL OR ME
TTITLE11=CAN'T HELP FALLIN' IN LOVE
TTITLE12=JENNY
TTITLE13=BECAUSE I LOVE YOU GIRL
TTITLE14=YOU ARE
TTITLE15=ONLY YOU (AND YOU ALONE)
TTITLE16=WHAT GOES AROUND COMES AROUND
TTITLE17=SHAME AND SCANDAL IN THE FAMILY
TTITLE18=THAT DON'T SHAKE ME
TTITLE19=I'M COMING HOME
TTITLE20=CAN'T GIVE YOU ANYTHING (BUT MY LOVE) (STONEBRIDGE RADIO EDIT
TTITLE20=)
EXTD=
EXTT0=
EXTT1=
EXTT2=
EXTT3=
EXTT4=
EXTT5=
EXTT6=
EXTT7=
EXTT8=
EXTT9=
EXTT10=
EXTT11=
EXTT12=
EXTT13=
EXTT14=
EXTT15=
EXTT16=
EXTT17=
EXTT18=
EXTT19=
EXTT20=
PLAYORDER=
